<?xml version="1.0" encoding="utf-8"?>
<!-- Generator: Adobe Illustrator 22.0.1, SVG Export Plug-In . SVG Version: 6.00 Build 0)  -->
<svg version="1.1" id="图层_1" xmlns="http://www.w3.org/2000/svg" xmlns:xlink="http://www.w3.org/1999/xlink" x="0px" y="0px"
	 viewBox="0 0 1024 1024" style="enable-background:new 0 0 1024 1024;" xml:space="preserve">
<style type="text/css">
	.st0{opacity:0.6;}
	.st1{fill:#FFFFFF;}
	.st2{fill:none;stroke:#FFFFFF;stroke-width:4;stroke-linecap:round;stroke-miterlimit:10;}
</style>
<g class="st0">
	<circle cx="512" cy="512" r="512"/>
</g>
<g>
	<path class="st1" d="M512,4c68.6,0,135.1,13.4,197.7,39.9c60.5,25.6,114.8,62.2,161.5,108.9c46.7,46.7,83.3,101,108.9,161.5
		c26.5,62.6,39.9,129.2,39.9,197.7s-13.4,135.1-39.9,197.7c-25.6,60.5-62.2,114.8-108.9,161.5c-46.7,46.7-101,83.3-161.5,108.9
		c-62.6,26.5-129.2,39.9-197.7,39.9s-135.1-13.4-197.7-39.9c-60.5-25.6-114.8-62.2-161.5-108.9c-46.7-46.7-83.3-101-108.9-161.5
		C17.4,647.1,4,580.6,4,512s13.4-135.1,39.9-197.7c25.6-60.5,62.2-114.8,108.9-161.5c46.7-46.7,101-83.3,161.5-108.9
		C376.9,17.4,443.4,4,512,4 M512,0C229.2,0,0,229.2,0,512s229.2,512,512,512s512-229.2,512-512S794.8,0,512,0L512,0z"/>
</g>
<g>
	<path class="st1" d="M512,106.4c54.8,0,107.9,10.7,157.9,31.9c48.3,20.4,91.7,49.7,128.9,86.9s66.5,80.6,86.9,128.9
		c21.1,50,31.9,103.1,31.9,157.9s-10.7,107.9-31.9,157.9c-20.4,48.3-49.7,91.7-86.9,128.9s-80.6,66.5-128.9,86.9
		c-50,21.1-103.1,31.9-157.9,31.9s-107.9-10.7-157.9-31.9c-48.3-20.4-91.7-49.7-128.9-86.9s-66.5-80.6-86.9-128.9
		c-21.1-50-31.9-103.1-31.9-157.9s10.7-107.9,31.9-157.9c20.4-48.3,49.7-91.7,86.9-128.9s80.6-66.5,128.9-86.9
		C404.1,117.1,457.2,106.4,512,106.4 M512,102.4c-226.2,0-409.6,183.4-409.6,409.6S285.8,921.6,512,921.6S921.6,738.2,921.6,512
		S738.2,102.4,512,102.4L512,102.4z"/>
</g>
<g>
	<path class="st1" d="M512,208.8c40.9,0,80.6,8,118,23.8c36.1,15.3,68.5,37.1,96.4,65c27.8,27.8,49.7,60.3,65,96.4
		c15.8,37.4,23.8,77.1,23.8,118s-8,80.6-23.8,118c-15.3,36.1-37.1,68.5-65,96.4c-27.8,27.8-60.3,49.7-96.4,65
		c-37.4,15.8-77.1,23.8-118,23.8s-80.6-8-118-23.8c-36.1-15.3-68.5-37.1-96.4-65s-49.7-60.3-65-96.4c-15.8-37.4-23.8-77.1-23.8-118
		s8-80.6,23.8-118c15.3-36.1,37.1-68.5,65-96.4c27.8-27.8,60.3-49.7,96.4-65C431.4,216.8,471.1,208.8,512,208.8 M512,204.8
		c-169.7,0-307.2,137.5-307.2,307.2S342.3,819.2,512,819.2S819.2,681.7,819.2,512S681.7,204.8,512,204.8L512,204.8z"/>
</g>
<g>
	<path class="st1" d="M512,311.2c27.1,0,53.4,5.3,78.2,15.8c23.9,10.1,45.4,24.6,63.8,43c18.4,18.4,32.9,39.9,43,63.8
		c10.5,24.8,15.8,51.1,15.8,78.2s-5.3,53.4-15.8,78.2c-10.1,23.9-24.6,45.4-43,63.8c-18.4,18.4-39.9,32.9-63.8,43
		c-24.8,10.5-51.1,15.8-78.2,15.8s-53.4-5.3-78.2-15.8c-23.9-10.1-45.4-24.6-63.8-43s-32.9-39.9-43-63.8
		c-10.5-24.8-15.8-51.1-15.8-78.2s5.3-53.4,15.8-78.2c10.1-23.9,24.6-45.4,43-63.8s39.9-32.9,63.8-43
		C458.6,316.5,484.9,311.2,512,311.2 M512,307.2c-113.1,0-204.8,91.7-204.8,204.8S398.9,716.8,512,716.8S716.8,625.1,716.8,512
		S625.1,307.2,512,307.2L512,307.2z"/>
</g>
<g>
	<path class="st1" d="M512,413.6c54.3,0,98.4,44.1,98.4,98.4s-44.1,98.4-98.4,98.4c-54.3,0-98.4-44.1-98.4-98.4
		S457.7,413.6,512,413.6 M512,409.6c-56.6,0-102.4,45.8-102.4,102.4S455.4,614.4,512,614.4S614.4,568.6,614.4,512
		S568.6,409.6,512,409.6L512,409.6z"/>
</g>
<g>
	<line class="st2" x1="3" y1="512" x2="1022" y2="512"/>
</g>
<line class="st2" x1="512" y1="3" x2="512" y2="1021"/>
</svg>
